<svg width="299" height="343" viewBox="0 0 299 343" fill="none" xmlns="http://www.w3.org/2000/svg">
<rect width="299" height="343" rx="15" fill="white"/>
<path d="M81.99 167.874V173.334C81.99 173.88 82.1243 174.3 82.393 174.595C82.6617 174.89 83.056 175.037 83.576 175.037C84.096 175.037 84.4947 174.89 84.772 174.595C85.0493 174.3 85.188 173.88 85.188 173.334V167.874H87.411V173.321C87.411 174.136 87.2377 174.825 86.891 175.388C86.5443 175.951 86.0763 176.376 85.487 176.662C84.9063 176.948 84.2563 177.091 83.537 177.091C82.8177 177.091 82.172 176.952 81.6 176.675C81.0367 176.389 80.5903 175.964 80.261 175.401C79.9317 174.829 79.767 174.136 79.767 173.321V167.874H81.99ZM91.195 170.773C91.4117 170.435 91.7107 170.162 92.092 169.954C92.4733 169.746 92.9197 169.642 93.431 169.642C94.029 169.642 94.5707 169.794 95.056 170.097C95.5413 170.4 95.9227 170.834 96.2 171.397C96.486 171.96 96.629 172.615 96.629 173.36C96.629 174.105 96.486 174.764 96.2 175.336C95.9227 175.899 95.5413 176.337 95.056 176.649C94.5707 176.952 94.029 177.104 93.431 177.104C92.9283 177.104 92.482 177 92.092 176.792C91.7107 176.584 91.4117 176.315 91.195 175.986V180.458H88.972V169.746H91.195V170.773ZM94.367 173.36C94.367 172.805 94.211 172.372 93.899 172.06C93.5957 171.739 93.2187 171.579 92.768 171.579C92.326 171.579 91.949 171.739 91.637 172.06C91.3337 172.381 91.182 172.818 91.182 173.373C91.182 173.928 91.3337 174.365 91.637 174.686C91.949 175.007 92.326 175.167 92.768 175.167C93.21 175.167 93.587 175.007 93.899 174.686C94.211 174.357 94.367 173.915 94.367 173.36ZM100.018 167.38V177H97.7953V167.38H100.018ZM104.931 177.104C104.221 177.104 103.579 176.952 103.007 176.649C102.444 176.346 101.998 175.912 101.668 175.349C101.348 174.786 101.187 174.127 101.187 173.373C101.187 172.628 101.352 171.973 101.681 171.41C102.011 170.838 102.461 170.4 103.033 170.097C103.605 169.794 104.247 169.642 104.957 169.642C105.668 169.642 106.309 169.794 106.881 170.097C107.453 170.4 107.904 170.838 108.233 171.41C108.563 171.973 108.727 172.628 108.727 173.373C108.727 174.118 108.558 174.777 108.22 175.349C107.891 175.912 107.436 176.346 106.855 176.649C106.283 176.952 105.642 177.104 104.931 177.104ZM104.931 175.18C105.356 175.18 105.716 175.024 106.01 174.712C106.314 174.4 106.465 173.954 106.465 173.373C106.465 172.792 106.318 172.346 106.023 172.034C105.737 171.722 105.382 171.566 104.957 171.566C104.524 171.566 104.164 171.722 103.878 172.034C103.592 172.337 103.449 172.784 103.449 173.373C103.449 173.954 103.588 174.4 103.865 174.712C104.151 175.024 104.507 175.18 104.931 175.18ZM109.465 173.36C109.465 172.615 109.603 171.96 109.881 171.397C110.167 170.834 110.552 170.4 111.038 170.097C111.523 169.794 112.065 169.642 112.663 169.642C113.174 169.642 113.62 169.746 114.002 169.954C114.392 170.162 114.691 170.435 114.899 170.773V169.746H117.122V177H114.899V175.973C114.682 176.311 114.379 176.584 113.989 176.792C113.607 177 113.161 177.104 112.65 177.104C112.06 177.104 111.523 176.952 111.038 176.649C110.552 176.337 110.167 175.899 109.881 175.336C109.603 174.764 109.465 174.105 109.465 173.36ZM114.899 173.373C114.899 172.818 114.743 172.381 114.431 172.06C114.127 171.739 113.755 171.579 113.313 171.579C112.871 171.579 112.494 171.739 112.182 172.06C111.878 172.372 111.727 172.805 111.727 173.36C111.727 173.915 111.878 174.357 112.182 174.686C112.494 175.007 112.871 175.167 113.313 175.167C113.755 175.167 114.127 175.007 114.431 174.686C114.743 174.365 114.899 173.928 114.899 173.373ZM118.288 173.36C118.288 172.615 118.426 171.96 118.704 171.397C118.99 170.834 119.375 170.4 119.861 170.097C120.346 169.794 120.888 169.642 121.486 169.642C121.962 169.642 122.396 169.742 122.786 169.941C123.184 170.14 123.496 170.409 123.722 170.747V167.38H125.945V177H123.722V175.96C123.514 176.307 123.215 176.584 122.825 176.792C122.443 177 121.997 177.104 121.486 177.104C120.888 177.104 120.346 176.952 119.861 176.649C119.375 176.337 118.99 175.899 118.704 175.336C118.426 174.764 118.288 174.105 118.288 173.36ZM123.722 173.373C123.722 172.818 123.566 172.381 123.254 172.06C122.95 171.739 122.578 171.579 122.136 171.579C121.694 171.579 121.317 171.739 121.005 172.06C120.701 172.372 120.55 172.805 120.55 173.36C120.55 173.915 120.701 174.357 121.005 174.686C121.317 175.007 121.694 175.167 122.136 175.167C122.578 175.167 122.95 175.007 123.254 174.686C123.566 174.365 123.722 173.928 123.722 173.373ZM129.931 172.424C129.931 171.523 130.126 170.721 130.516 170.019C130.906 169.308 131.448 168.758 132.141 168.368C132.843 167.969 133.636 167.77 134.52 167.77C135.603 167.77 136.531 168.056 137.302 168.628C138.073 169.2 138.589 169.98 138.849 170.968H136.405C136.223 170.587 135.963 170.296 135.625 170.097C135.296 169.898 134.919 169.798 134.494 169.798C133.809 169.798 133.255 170.036 132.83 170.513C132.405 170.99 132.193 171.627 132.193 172.424C132.193 173.221 132.405 173.858 132.83 174.335C133.255 174.812 133.809 175.05 134.494 175.05C134.919 175.05 135.296 174.95 135.625 174.751C135.963 174.552 136.223 174.261 136.405 173.88H138.849C138.589 174.868 138.073 175.648 137.302 176.22C136.531 176.783 135.603 177.065 134.52 177.065C133.636 177.065 132.843 176.87 132.141 176.48C131.448 176.081 130.906 175.531 130.516 174.829C130.126 174.127 129.931 173.325 129.931 172.424ZM147.048 173.256C147.048 173.464 147.035 173.681 147.009 173.906H141.978C142.013 174.357 142.156 174.703 142.407 174.946C142.667 175.18 142.984 175.297 143.356 175.297C143.911 175.297 144.297 175.063 144.513 174.595H146.879C146.758 175.072 146.537 175.501 146.216 175.882C145.904 176.263 145.51 176.562 145.033 176.779C144.557 176.996 144.024 177.104 143.434 177.104C142.724 177.104 142.091 176.952 141.536 176.649C140.982 176.346 140.548 175.912 140.236 175.349C139.924 174.786 139.768 174.127 139.768 173.373C139.768 172.619 139.92 171.96 140.223 171.397C140.535 170.834 140.969 170.4 141.523 170.097C142.078 169.794 142.715 169.642 143.434 169.642C144.136 169.642 144.76 169.789 145.306 170.084C145.852 170.379 146.277 170.799 146.58 171.345C146.892 171.891 147.048 172.528 147.048 173.256ZM144.773 172.671C144.773 172.29 144.643 171.986 144.383 171.761C144.123 171.536 143.798 171.423 143.408 171.423C143.036 171.423 142.719 171.531 142.459 171.748C142.208 171.965 142.052 172.272 141.991 172.671H144.773ZM150.444 170.955C150.704 170.556 151.029 170.244 151.419 170.019C151.809 169.785 152.242 169.668 152.719 169.668V172.021H152.108C151.553 172.021 151.137 172.142 150.86 172.385C150.583 172.619 150.444 173.035 150.444 173.633V177H148.221V169.746H150.444V170.955ZM157.825 175.115V177H156.694C155.888 177 155.259 176.805 154.809 176.415C154.358 176.016 154.133 175.371 154.133 174.478V171.592H153.249V169.746H154.133V167.978H156.356V169.746H157.812V171.592H156.356V174.504C156.356 174.721 156.408 174.877 156.512 174.972C156.616 175.067 156.789 175.115 157.032 175.115H157.825ZM160.181 168.992C159.791 168.992 159.47 168.879 159.219 168.654C158.976 168.42 158.855 168.134 158.855 167.796C158.855 167.449 158.976 167.163 159.219 166.938C159.47 166.704 159.791 166.587 160.181 166.587C160.562 166.587 160.874 166.704 161.117 166.938C161.368 167.163 161.494 167.449 161.494 167.796C161.494 168.134 161.368 168.42 161.117 168.654C160.874 168.879 160.562 168.992 160.181 168.992ZM161.286 169.746V177H159.063V169.746H161.286ZM166.537 171.592H165.341V177H163.118V171.592H162.312V169.746H163.118V169.538C163.118 168.645 163.373 167.969 163.885 167.51C164.396 167.042 165.146 166.808 166.134 166.808C166.298 166.808 166.42 166.812 166.498 166.821V168.706C166.073 168.68 165.774 168.741 165.601 168.888C165.427 169.035 165.341 169.3 165.341 169.681V169.746H166.537V171.592ZM168.699 168.992C168.309 168.992 167.989 168.879 167.737 168.654C167.495 168.42 167.373 168.134 167.373 167.796C167.373 167.449 167.495 167.163 167.737 166.938C167.989 166.704 168.309 166.587 168.699 166.587C169.081 166.587 169.393 166.704 169.635 166.938C169.887 167.163 170.012 167.449 170.012 167.796C170.012 168.134 169.887 168.42 169.635 168.654C169.393 168.879 169.081 168.992 168.699 168.992ZM169.804 169.746V177H167.581V169.746H169.804ZM170.973 173.373C170.973 172.619 171.125 171.96 171.428 171.397C171.74 170.834 172.169 170.4 172.715 170.097C173.27 169.794 173.903 169.642 174.613 169.642C175.523 169.642 176.282 169.88 176.888 170.357C177.504 170.834 177.907 171.505 178.097 172.372H175.731C175.532 171.817 175.146 171.54 174.574 171.54C174.167 171.54 173.842 171.7 173.599 172.021C173.357 172.333 173.235 172.784 173.235 173.373C173.235 173.962 173.357 174.417 173.599 174.738C173.842 175.05 174.167 175.206 174.574 175.206C175.146 175.206 175.532 174.929 175.731 174.374H178.097C177.907 175.223 177.504 175.891 176.888 176.376C176.273 176.861 175.515 177.104 174.613 177.104C173.903 177.104 173.27 176.952 172.715 176.649C172.169 176.346 171.74 175.912 171.428 175.349C171.125 174.786 170.973 174.127 170.973 173.373ZM178.844 173.36C178.844 172.615 178.983 171.96 179.26 171.397C179.546 170.834 179.932 170.4 180.417 170.097C180.903 169.794 181.444 169.642 182.042 169.642C182.554 169.642 183 169.746 183.381 169.954C183.771 170.162 184.07 170.435 184.278 170.773V169.746H186.501V177H184.278V175.973C184.062 176.311 183.758 176.584 183.368 176.792C182.987 177 182.541 177.104 182.029 177.104C181.44 177.104 180.903 176.952 180.417 176.649C179.932 176.337 179.546 175.899 179.26 175.336C178.983 174.764 178.844 174.105 178.844 173.36ZM184.278 173.373C184.278 172.818 184.122 172.381 183.81 172.06C183.507 171.739 183.134 171.579 182.692 171.579C182.25 171.579 181.873 171.739 181.561 172.06C181.258 172.372 181.106 172.805 181.106 173.36C181.106 173.915 181.258 174.357 181.561 174.686C181.873 175.007 182.25 175.167 182.692 175.167C183.134 175.167 183.507 175.007 183.81 174.686C184.122 174.365 184.278 173.928 184.278 173.373ZM192.153 175.115V177H191.022C190.216 177 189.587 176.805 189.137 176.415C188.686 176.016 188.461 175.371 188.461 174.478V171.592H187.577V169.746H188.461V167.978H190.684V169.746H192.14V171.592H190.684V174.504C190.684 174.721 190.736 174.877 190.84 174.972C190.944 175.067 191.117 175.115 191.36 175.115H192.153ZM200.229 173.256C200.229 173.464 200.216 173.681 200.19 173.906H195.159C195.194 174.357 195.337 174.703 195.588 174.946C195.848 175.18 196.164 175.297 196.537 175.297C197.092 175.297 197.477 175.063 197.694 174.595H200.06C199.939 175.072 199.718 175.501 199.397 175.882C199.085 176.263 198.691 176.562 198.214 176.779C197.737 176.996 197.204 177.104 196.615 177.104C195.904 177.104 195.272 176.952 194.717 176.649C194.162 176.346 193.729 175.912 193.417 175.349C193.105 174.786 192.949 174.127 192.949 173.373C192.949 172.619 193.101 171.96 193.404 171.397C193.716 170.834 194.149 170.4 194.704 170.097C195.259 169.794 195.896 169.642 196.615 169.642C197.317 169.642 197.941 169.789 198.487 170.084C199.033 170.379 199.458 170.799 199.761 171.345C200.073 171.891 200.229 172.528 200.229 173.256ZM197.954 172.671C197.954 172.29 197.824 171.986 197.564 171.761C197.304 171.536 196.979 171.423 196.589 171.423C196.216 171.423 195.9 171.531 195.64 171.748C195.389 171.965 195.233 172.272 195.172 172.671H197.954Z" fill="#2262C6"/>
<g clip-path="url(#clip0)">
<path d="M227.163 167.454C226.1 163.22 221.805 160.649 217.571 161.712C214.261 162.542 211.858 165.402 211.611 168.805C209.261 169.193 207.67 171.412 208.058 173.762C208.402 175.851 210.212 177.38 212.33 177.372H215.923V175.935H212.33C210.742 175.935 209.455 174.648 209.455 173.06C209.455 171.472 210.742 170.185 212.33 170.185C212.726 170.185 213.048 169.864 213.048 169.467C213.045 165.894 215.938 162.996 219.51 162.992C222.602 162.989 225.264 165.175 225.862 168.209C225.921 168.512 226.167 168.743 226.473 168.784C228.438 169.064 229.804 170.883 229.524 172.848C229.273 174.612 227.766 175.926 225.984 175.935H223.11V177.372H225.984C228.763 177.364 231.008 175.104 231 172.326C230.993 170.013 229.41 168.003 227.163 167.454Z" fill="#2262C6"/>
<path d="M219.007 170.394L216.132 173.268L217.145 174.282L218.798 172.636V179.528H220.235V172.636L221.881 174.282L222.895 173.268L220.02 170.394C219.74 170.115 219.287 170.115 219.007 170.394Z" fill="#2262C6"/>
</g>
<defs>
<clipPath id="clip0">
<rect x="208" y="159" width="23" height="23" rx="10" fill="white"/>
</clipPath>
</defs>
</svg>
